<svg width="4" height="10" viewBox="0 0 4 10" fill="none" xmlns="http://www.w3.org/2000/svg">
<g clip-path="url(#clip0)">
<path d="M-8.74228e-08 2L-8.76415e-08 2.005C-1.10828e-07 2.53544 0.210713 3.04412 0.585786 3.41919C0.960859 3.79426 1.46957 4.005 2 4.005C2.53043 4.005 3.03914 3.79426 3.41421 3.41919C3.78929 3.04412 4 2.53544 4 2.005L4 2C4 1.46957 3.78929 0.960888 3.41421 0.585815C3.03914 0.210743 2.53043 -6.42368e-08 2 -8.74228e-08C1.46957 -1.10609e-07 0.960859 0.210743 0.585786 0.585815C0.210714 0.960888 -6.42368e-08 1.46957 -8.74228e-08 2Z" fill="#EE9000"/>
</g>
<defs>
<clipPath id="clip0">
<rect width="10" height="4" fill="white" transform="translate(4) rotate(90)"/>
</clipPath>
</defs>
</svg>
