<svg xmlns="http://www.w3.org/2000/svg" xmlns:xlink="http://www.w3.org/1999/xlink" width="50" height="50" viewBox="0 0 50 50"><defs><clipPath id="a"><rect width="22.252" height="22.252" fill="none"/></clipPath></defs><g transform="translate(-129 -1992)"><circle cx="25" cy="25" r="25" transform="translate(129 1992)" fill="#fff"/><path d="M25,1a24.007,24.007,0,0,0-9.342,46.114A24.006,24.006,0,0,0,34.342,2.886,23.849,23.849,0,0,0,25,1m0-1A25,25,0,1,1,0,25,25,25,0,0,1,25,0Z" transform="translate(129 1992)"/><g transform="translate(-984.5 703.5)"><g transform="translate(1126.874 1301.874)"><g clip-path="url(#a)"><path d="M17.542,11.19l.178-2.359a1.669,1.669,0,1,0-1.111-.057l-.178,2.357A5.546,5.546,0,0,0,12.715,12.8l-2.482-1.985a5.569,5.569,0,0,0,.589-4.84L17.3,2.962A1.668,1.668,0,1,0,16.723,2L10.356,4.961a5.563,5.563,0,1,0-7.721,7.557l-.755,1.959a1.67,1.67,0,1,0,1,.5l.761-1.972a5.562,5.562,0,0,0,5.9-1.329l2.481,1.985a5.569,5.569,0,0,0-.731,4.359l-3.91,1.462a1.668,1.668,0,1,0,.41,1.034l3.874-1.449a5.564,5.564,0,1,0,5.881-7.882Zm.816-10.078a.556.556,0,1,1-.556.556.557.557,0,0,1,.556-.556M2.2,16.316a.556.556,0,1,1-.342-.709A.558.558,0,0,1,2.2,16.316Zm5.594-4.676a4.435,4.435,0,0,1-4.45,0v-.514a2.225,2.225,0,0,1,4.45,0ZM4.451,6.675A1.113,1.113,0,1,1,5.564,7.788,1.113,1.113,0,0,1,4.451,6.675M8.88,10.751A3.338,3.338,0,0,0,7.179,8.2a2.225,2.225,0,1,0-3.231,0,3.34,3.34,0,0,0-1.7,2.546,4.451,4.451,0,1,1,6.633,0ZM6.3,21.107a.556.556,0,1,1,.341-.709.557.557,0,0,1-.341.709M17.246,6.675a.556.556,0,1,1-.556.556.557.557,0,0,1,.556-.556M18.914,20.54a4.434,4.434,0,0,1-4.45,0v-.514a2.225,2.225,0,0,1,4.45,0Zm-3.338-4.964a1.113,1.113,0,1,1,1.113,1.113,1.113,1.113,0,0,1-1.113-1.113m4.429,4.076A3.339,3.339,0,0,0,18.3,17.1a2.225,2.225,0,1,0-3.23,0,3.341,3.341,0,0,0-1.7,2.546,4.45,4.45,0,1,1,6.633,0Z" transform="translate(0 0)"/></g></g><circle cx="2" cy="2" r="2" transform="translate(1143.5 1301.5)" fill="#fff"/><path d="M2,0A2,2,0,1,1,0,2,2,2,0,0,1,2,0Z" transform="translate(1143.5 1301.5)" fill="#e11824"/><circle cx="2.5" cy="2.5" r="2.5" transform="translate(1130.5 1320.5)" fill="#fff"/><path d="M2.5,0A2.5,2.5,0,1,1,0,2.5,2.5,2.5,0,0,1,2.5,0Z" transform="translate(1130.5 1320.5)" fill="#e11824"/><circle cx="2.5" cy="2.5" r="2.5" transform="translate(1125.5 1315.5)" fill="#fff"/><path d="M2.5,0A2.5,2.5,0,1,1,0,2.5,2.5,2.5,0,0,1,2.5,0Z" transform="translate(1125.5 1315.5)" fill="#e11824"/><circle cx="2.5" cy="2.5" r="2.5" transform="translate(1141.5 1306.5)" fill="#fff"/><path d="M2.5,0A2.5,2.5,0,1,1,0,2.5,2.5,2.5,0,0,1,2.5,0Z" transform="translate(1141.5 1306.5)" fill="#e11824"/></g></g></svg>