<svg xmlns="http://www.w3.org/2000/svg" xmlns:xlink="http://www.w3.org/1999/xlink" width="50" height="50" viewBox="0 0 50 50"><defs><clipPath id="a"><rect width="32" height="32" transform="translate(0 0)" fill="none"/></clipPath><clipPath id="b"><rect width="30" height="30" transform="translate(0.2 0.4)" fill="none"/></clipPath><clipPath id="c"><rect width="10.824" height="3.536" transform="translate(0 0)" fill="#e11824"/></clipPath></defs><g transform="translate(-129 -1887)"><circle cx="25" cy="25" r="25" transform="translate(129 1887)" fill="#fff"/><path d="M25,1a24.007,24.007,0,0,0-9.342,46.114A24.006,24.006,0,0,0,34.342,2.886,23.849,23.849,0,0,0,25,1m0-1A25,25,0,1,1,0,25,25,25,0,0,1,25,0Z" transform="translate(129 1887)"/><g transform="translate(-1398 579)"><g transform="translate(1536.8 1318.6)"><g transform="translate(0 0)" clip-path="url(#b)"><path d="M26.573,9.3a.45.45,0,0,0-.452.448v.472c-1.239,0-3.092-.472-5.408-.472a4.515,4.515,0,0,0-2.75,1.111,8.635,8.635,0,0,0-1.41,1.429A7.9,7.9,0,0,0,14.409,12,7.551,7.551,0,0,0,11,12.775a4.608,4.608,0,0,0-2.9-1.23c-2.315,0-4.164.473-5.4.473v-.473a.45.45,0,0,0-.452-.448H.448a.451.451,0,0,0,0,.9H1.8v6.3H.448a.45.45,0,0,0,0,.9h1.8a.45.45,0,0,0,.452-.448,5.92,5.92,0,0,1,1.48.625,5.7,5.7,0,0,0,2.567.724h.52a8.3,8.3,0,0,0,2.094,4.256c.47.564.92,1.057,1.231,1.5a2.189,2.189,0,0,1,.471,1.112,1.347,1.347,0,0,0,.645,2.061v2.333a1.361,1.361,0,0,0,.9,1.272v.53a1.358,1.358,0,0,0,1.353,1.35h.9a1.359,1.359,0,0,0,1.353-1.35v-.53a1.36,1.36,0,0,0,.9-1.272V29.031a1.358,1.358,0,0,0,.9-1.271,1.331,1.331,0,0,0-.258-.783,2.275,2.275,0,0,1,.518-1.179c.338-.467.816-.986,1.309-1.59a7.75,7.75,0,0,0,2.031-5.059,8.015,8.015,0,0,0-.049-.848h.508a5.684,5.684,0,0,0,2.565-.721,5.993,5.993,0,0,1,1.484-.629.451.451,0,0,0,.452.449h1.792a.451.451,0,1,0,0-.9H27.021V10.2h1.344a.45.45,0,1,0,0-.9Zm-5.86,1.35c2.189,0,3.957.471,5.408.471v4.935a4.39,4.39,0,0,0-1.886.721,4.865,4.865,0,0,1-2.162.629H19.59a.675.675,0,0,1,0-1.35h1.583a.451.451,0,0,0,0-.9h-.7A6.785,6.785,0,0,0,17.458,12.6a7.672,7.672,0,0,1,1.065-1.04,3.705,3.705,0,0,1,2.191-.917ZM8.1,12.447a3.6,3.6,0,0,1,2.071.821,6.736,6.736,0,0,0-2.652,3.68l-.317,0a.451.451,0,1,0,0,.9H8.779a.675.675,0,0,1,0,1.349H6.743a4.858,4.858,0,0,1-2.162-.628A4.39,4.39,0,0,0,2.7,17.853V12.919c1.451,0,3.214-.472,5.4-.472Zm5.856.466v1.846a1.534,1.534,0,0,0-.448-.061,1.8,1.8,0,1,0,0,3.6,1.866,1.866,0,0,0,.448-.054V19.2H10.2a1.556,1.556,0,0,0,.154-.675A1.581,1.581,0,0,0,8.78,16.952H8.468a5.96,5.96,0,0,1,5.488-4.038Zm.9,0a6.07,6.07,0,0,1,4.513,2.251,1.576,1.576,0,0,0,.219,3.137h1.069a7.164,7.164,0,0,1,.058.9l-2.191.005a.45.45,0,0,0-.336.751.9.9,0,0,1,.23.6.9.9,0,1,1-1.8,0,.9.9,0,0,1,.229-.6.45.45,0,0,0-.335-.751H14.857V17.508a.451.451,0,0,0-.752-.336.9.9,0,1,1,0-1.34.451.451,0,0,0,.752-.336ZM8.174,20.1h5.783v.958a1.531,1.531,0,0,0-.448-.055,1.8,1.8,0,1,0,0,3.6,1.621,1.621,0,0,0,.448-.059v1.86h-1.8a1.338,1.338,0,0,0-.275.029,3.632,3.632,0,0,0-.559-1.1c-.362-.513-.818-1.012-1.271-1.557A7.438,7.438,0,0,1,8.174,20.1Zm6.684,0h.91a1.844,1.844,0,0,0-.049.45,1.8,1.8,0,0,0,3.6,0,1.541,1.541,0,0,0-.057-.45h1.382a7.221,7.221,0,0,1-1.761,3.534c-.472.577-.956,1.1-1.343,1.633a3.73,3.73,0,0,0-.607,1.168,1.345,1.345,0,0,0-.274-.028h-1.8v-2.6a.451.451,0,0,0-.752-.336.9.9,0,1,1,0-1.339.451.451,0,0,0,.752-.336Zm-2.7,7.205H16.66a.45.45,0,1,1,0,.9h-4.5a.448.448,0,0,1-.453-.448.46.46,0,0,1,.448-.452m.454,1.8h3.6v2.254a.44.44,0,0,1-.452.448h-2.7a.44.44,0,0,1-.452-.448Zm.9,3.6h1.8v.452a.44.44,0,0,1-.453.448h-.9a.44.44,0,0,1-.452-.448Z" transform="translate(0.61 -4.799)"/></g></g><g transform="translate(1546.545 1318.213)"><g transform="translate(0 0)" clip-path="url(#c)"><path d="M71.976,0A.593.593,0,0,0,71.4.588V2.393a.591.591,0,0,0,1.182,0V.588A.594.594,0,0,0,71.976,0Z" transform="translate(-66.579 0)" fill="#e11824"/><path d="M.565,15.953a.593.593,0,0,0-.391,1.011l1.274,1.274a.59.59,0,0,0,.836-.834L1.013,16.127a.592.592,0,0,0-.447-.174Z" transform="translate(0 -14.876)" fill="#e11824"/><path d="M125.849,16.011a.592.592,0,0,0-.419.171l-1.273,1.277a.591.591,0,0,0,.837.834l1.273-1.274a.589.589,0,0,0-.419-1.007Z" transform="translate(-115.617 -14.93)" fill="#e11824"/></g></g></g></g></svg>