<svg xmlns="http://www.w3.org/2000/svg" width="50" height="50" viewBox="0 0 50 50"><g transform="translate(-129 -1768)"><circle cx="25" cy="25" r="25" transform="translate(129 1768)" fill="#fff"/><path d="M25,1a24.007,24.007,0,0,0-9.342,46.114A24.006,24.006,0,0,0,34.342,2.886,23.849,23.849,0,0,0,25,1m0-1A25,25,0,1,1,0,25,25,25,0,0,1,25,0Z" transform="translate(129 1768)"/><g transform="translate(36 1661.5)"><path d="M132.6,124.7a1.02,1.02,0,0,0-.9-.2l-4.7,1.6v-.6a2.946,2.946,0,0,0-3-3H108a2.946,2.946,0,0,0-3,3v12a2.946,2.946,0,0,0,3,3h16a2.946,2.946,0,0,0,3-3v-.6l4.7,1.6h.3a1.422,1.422,0,0,0,.6-.2.91.91,0,0,0,.4-.8v-12A1.235,1.235,0,0,0,132.6,124.7ZM125,137.5a.945.945,0,0,1-1,1H108a.945.945,0,0,1-1-1v-12a.945.945,0,0,1,1-1h16a.945.945,0,0,1,1,1Zm6-1.4-4-1.3v-6.6l4-1.3Z"/><path d="M162.5,192.5h-4a1,1,0,0,0,0,2h4a1,1,0,0,0,0-2Z" transform="translate(-49.5 -66)"/></g></g></svg>