<?xml version="1.0" encoding="utf-8"?>
<!-- Generator: Adobe Illustrator 25.2.3, SVG Export Plug-In . SVG Version: 6.00 Build 0)  -->
<svg version="1.1" id="Layer_1" xmlns:sketch="http://www.bohemiancoding.com/sketch/ns"
	 xmlns="http://www.w3.org/2000/svg" xmlns:xlink="http://www.w3.org/1999/xlink" x="0px" y="0px" viewBox="0 0 92 78"
	 style="enable-background:new 0 0 92 78;" xml:space="preserve">
<style type="text/css">
	.st0{fill:none;}
</style>
<desc>Created with Sketch.</desc>
<g sketch:type="MSPage">
	<g>
		<path class="st0" d="M4.7,69.7c0,1.1,0.9,2,2,2h78c1.1,0,2-0.9,2-2V16.8h-82V69.7z M36.8,23.9l24.7,22.9l-11.1-0.3L56,59.2
			c0.7,1.7-0.1,3.8-1.8,4.5c-1.7,0.7-3.7-0.1-4.5-1.8l-5.5-12.6l-7.6,8.3L36.8,23.9z"/>
		<path d="M9.5,6.9C8.3,6.9,7.4,7.8,7.4,9s1,2.1,2.1,2.1c1.2,0,2.1-0.9,2.1-2.1S10.7,6.9,9.5,6.9z"/>
		<path d="M15.3,6.9c-1.2,0-2.1,0.9-2.1,2.1s0.9,2.1,2.1,2.1s2.1-0.9,2.1-2.1S16.5,6.9,15.3,6.9z"/>
		<path d="M49.7,61.9c0.8,1.7,2.8,2.5,4.5,1.8c1.7-0.7,2.5-2.8,1.8-4.5l-5.6-12.7l11.1,0.3L36.8,23.9l-0.2,33.7l7.6-8.3L49.7,61.9z"
			/>
		<path d="M84.7,0.7h-78c-3.3,0-6,2.7-6,6v63c0,3.3,2.7,6,6,6h78c3.3,0,6-2.7,6-6v-63C90.7,3.4,88,0.7,84.7,0.7z M86.7,69.7
			c0,1.1-0.9,2-2,2h-78c-1.1,0-2-0.9-2-2V16.8h82V69.7z M86.7,12.8h-82V6.7c0-1.1,0.9-2,2-2h78c1.1,0,2,0.9,2,2V12.8z"/>
		<path d="M21.1,6.9C19.9,6.9,19,7.8,19,9s0.9,2.1,2.1,2.1s2.1-0.9,2.1-2.1S22.3,6.9,21.1,6.9z"/>
		<path d="M9.5,11.1c-1.1,0-2.1-0.9-2.1-2.1s0.9-2.1,2.1-2.1s2.1,0.9,2.1,2.1S10.7,11.1,9.5,11.1z M15.3,11.1
			c-1.2,0-2.1-0.9-2.1-2.1s0.9-2.1,2.1-2.1s2.1,0.9,2.1,2.1S16.5,11.1,15.3,11.1z M21.1,11.1c-1.2,0-2.1-0.9-2.1-2.1
			s0.9-2.1,2.1-2.1s2.1,0.9,2.1,2.1S22.3,11.1,21.1,11.1z"/>
	</g>
</g>
</svg>
