<svg xmlns="http://www.w3.org/2000/svg" xmlns:xlink="http://www.w3.org/1999/xlink" width="117" height="141.575" viewBox="0 0 117 141.575"><defs><clipPath id="a"><rect width="117" height="141.575" fill="none"/></clipPath></defs><g clip-path="url(#a)"><path d="M88.765,243.756A44.828,44.828,0,0,1,75.109,255.62a47.17,47.17,0,0,1-24.089,6.072l-22.707-.2V243.756H3.63V284.6H51.612a73.875,73.875,0,0,0,36.43-9.083,63.434,63.434,0,0,0,25.472-25.373c1.126-2.032,2.112-4.118,3.028-6.232a20.684,20.684,0,0,0-2.414-.153Z" transform="translate(-2.13 -143.021)" fill="#2035e2"/><path d="M28.311,22.806l22.707.2q14.217.2,24.682,6.121a42.725,42.725,0,0,1,13.26,11.762h25.167a20.739,20.739,0,0,0,2.507-.168,67.922,67.922,0,0,0-3.122-6.361A64.283,64.283,0,0,0,87.942,9.083,73.677,73.677,0,0,0,51.611,0H3.629V40.886H28.311Z" transform="translate(-2.129 0)" fill="#2035e2"/><path d="M245.829,152.987A13.131,13.131,0,1,1,232.7,139.856a13.131,13.131,0,0,1,13.131,13.131" transform="translate(-128.829 -82.059)" fill="#2035e2"/><path d="M26.261,152.987A13.131,13.131,0,1,1,13.13,139.856a13.131,13.131,0,0,1,13.131,13.131" transform="translate(0 -82.059)" fill="#2035e2"/></g></svg>