<svg xmlns="http://www.w3.org/2000/svg" width="223" height="27.956" viewBox="0 0 223 27.956"><path d="M15.314,6.912h3.5V23.973h-3.93l-.024-7.812-3.235,7.812H8.773L5.514,16.257v7.716H1.608V6.912H5.13l5.1,11.646Zm6.626,17.061V6.912h4.506V23.973Zm22.414,0H39.587l-2.2-5.679a1.709,1.709,0,0,0-1.8-.958H33.956v6.637H29.523V6.912h7.931A6.958,6.958,0,0,1,42.1,8.254,4.684,4.684,0,0,1,43.66,12.04a4.788,4.788,0,0,1-3.522,4.768,2.663,2.663,0,0,1,1.294.671,3.61,3.61,0,0,1,.911,1.414Zm-7.62-9.992a3.865,3.865,0,0,0,2.085-.431,1.585,1.585,0,0,0,.647-1.39,1.573,1.573,0,0,0-.647-1.414,3.791,3.791,0,0,0-2.085-.431H33.908v3.666Zm9.893-7.069H53.6a10.663,10.663,0,0,1,4.864,1.03A7.053,7.053,0,0,1,61.6,10.866a8.981,8.981,0,0,1,1.1,4.553,9.329,9.329,0,0,1-1.078,4.6,7.193,7.193,0,0,1-3.139,2.947A10.936,10.936,0,0,1,53.6,23.973H46.629ZM53.29,20.379A5.051,5.051,0,0,0,57,19.157a5.077,5.077,0,0,0,1.246-3.738q0-4.912-4.96-4.912H51.133v9.872Zm24.555,3.594-1.51-3.522H68.763l-1.51,3.522h-4.5L70.728,6.912h3.546l8,17.061Zm-7.62-6.9h4.649L72.549,11.68Zm14.636,6.9V10.554h-5.08V6.912H94.493v3.642h-5.08V23.973Zm22.235,0-1.51-3.522H98.014L96.5,23.973H92L99.979,6.912h3.546l8,17.061Zm-7.62-6.9h4.649L101.8,11.68Z" transform="translate(-1.608 -1.009)" fill="#e11824"/><rect width="27.956" height="27.956" rx="2" transform="translate(112.214)" fill="#303030"/><path d="M117.032,19.516h4.529v4.457h-4.529Zm21.958,4.457h-4.768l-2.2-5.679a1.709,1.709,0,0,0-1.8-.958h-1.629v6.637h-4.433V6.912h7.931a6.958,6.958,0,0,1,4.649,1.342A4.684,4.684,0,0,1,138.3,12.04a4.788,4.788,0,0,1-3.522,4.768,2.663,2.663,0,0,1,1.294.671,3.61,3.61,0,0,1,.911,1.414Zm-7.62-9.992a3.865,3.865,0,0,0,2.085-.431,1.585,1.585,0,0,0,.647-1.39,1.573,1.573,0,0,0-.647-1.414,3.791,3.791,0,0,0-2.085-.431h-2.828v3.666Z" transform="translate(-1.791 -1.009)" fill="#fff"/><path d="M144.536,23.973V6.912h12.173v3.451h-7.788v3.211h7.284v3.451h-7.284v3.5h7.788v3.451ZM159,6.912h8.123a6.631,6.631,0,0,1,4.529,1.414,4.748,4.748,0,0,1,1.605,3.786,4.76,4.76,0,0,1-1.629,3.786,6.648,6.648,0,0,1-4.5,1.414H163.5v6.661H159Zm7.524,7.045q2.54,0,2.54-1.8a1.582,1.582,0,0,0-.623-1.366,3.071,3.071,0,0,0-1.917-.479H163.5v3.642Zm17.05,10.232a9.4,9.4,0,0,1-4.553-1.054,7.392,7.392,0,0,1-3-3.067,9.972,9.972,0,0,1-1.03-4.649,9.642,9.642,0,0,1,1.054-4.625,7.314,7.314,0,0,1,2.971-3.019A9.226,9.226,0,0,1,183.571,6.7,9.089,9.089,0,0,1,188.1,7.774a7.128,7.128,0,0,1,2.971,3.019,9.826,9.826,0,0,1,1.03,4.625,9.971,9.971,0,0,1-1.03,4.649,7.242,7.242,0,0,1-2.971,3.067A9.256,9.256,0,0,1,183.571,24.188Zm0-3.427a3.6,3.6,0,0,0,3-1.366,6.211,6.211,0,0,0,1.1-3.978,6.065,6.065,0,0,0-1.1-3.93,3.99,3.99,0,0,0-5.99-.024,6.205,6.205,0,0,0-1.078,3.954,6.356,6.356,0,0,0,1.078,4A3.629,3.629,0,0,0,183.571,20.762Zm25.991,3.211h-4.768l-2.2-5.679a1.709,1.709,0,0,0-1.8-.958h-1.629v6.637h-4.433V6.912h7.931a6.958,6.958,0,0,1,4.649,1.342,4.683,4.683,0,0,1,1.558,3.786,4.788,4.788,0,0,1-3.522,4.768,2.663,2.663,0,0,1,1.294.671,3.61,3.61,0,0,1,.911,1.414Zm-7.62-9.992a3.865,3.865,0,0,0,2.085-.431,1.585,1.585,0,0,0,.647-1.39,1.573,1.573,0,0,0-.647-1.414,3.791,3.791,0,0,0-2.085-.431h-2.828V13.98Zm13.26,9.992V10.554h-5.08V6.912h14.713v3.642h-5.08V23.973Z" transform="translate(-1.835 -1.009)" fill="#e11824"/></svg>